<?xml version="1.0" encoding="UTF-8"?>
<svg id="Camada_1" data-name="Camada 1" xmlns="http://www.w3.org/2000/svg" viewBox="0 0 1080 1080">
  <defs>
    <style>
      .cls-1 {
        fill: #f6f6f8;
      }

      .cls-2 {
        fill: none;
        stroke: #f7f8f8;
        stroke-miterlimit: 10;
        stroke-width: 6px;
      }

      .cls-3 {
        fill: #b67b41;
      }
    </style>
  </defs>
  <circle class="cls-3" cx="540" cy="540" r="407.4"/>
  <circle class="cls-2" cx="540" cy="540" r="385.4"/>
  <path class="cls-1" d="M793.8,450.9v7.7c-2.2,5.8-5.8,10.5-12.3,12.7l-87.6,29c4.3,24.3,7,47.3,8.8,71.6l50.4-18.3c8.3-1.6,15.6,1.7,22,7.2,10.5,9.7,16.3,23,18.7,36.6v13.9l-1.2,2.8c-1.8,6.6-5.4,13.9-12.3,16.4l-24.6,9.1c-3.9,1.4-8.2-1.3-9.3-4.4s.3-8.1,4.3-9.6l24.7-9.2c9.4-13.8-1.8-44.8-18.1-48.7l-75.6,27.5c13.1,12.9,19.2,30.3,17.9,48.9l20.7-7.5c4.2-1.1,8.3,1.6,9.1,4.9s-1,7.8-4.9,9.3l-11.2,4.3c9.3,4.3,16.7,10.7,21.6,20s.5,14.7-6.5,17.3l-34.8,12.6c-7.4,2.7-13.9-2.6-16.2-9.1-4.1-11.9-13.3-23-24.9-18.8l-117.7,42.7c-7.3,2.6-15.6-1.6-21-6.2-12.4-10.3-18.3-25.7-19.9-41.6l-31-6.4.5,29.6c.1,6.3-4.6,11-10.4,12.3-14.4,3.2-28.7,3.2-43.1,0s-10.8-6.6-10.6-13.3l2-51.7c-11.7-7.4-26.4-12.3-25.8-26.5l1.8-44.6c.2-4.6,4.5-7.3,8.4-6.8,3.6.4,6.5,3.5,6.4,7.8l-1.7,46,12.6,7.9c1.8-16.8,5.1-31.9,8.2-48.1-5.4-7.8-10.4-17.6-6.6-28.4s9-16,19.4-18.6v-18.7c0,0-23.7-7.7-23.7-7.7l-5.2,35.7c-.6,4.2-4.4,6.6-8.2,6.2s-7.1-3.9-6.5-8l5.7-38.6-88.3-29.3c-7.7-2.6-12-10.2-11.5-17.6s5-13.3,12.7-15.8l230.6-76.2c7.1-2.3,13-2.7,20.1-.3l231.3,76.5c7,2.3,10.7,7,12.8,13.5ZM548.1,548.4c-5.5,1.8-11.6,1.5-16.7-.1l-92.5-30.6-.2,13.5c9.9,2.8,16.8,10.5,19.5,18.8s-.4,20.3-6.8,28.4c5.6,23.5,9.1,47.1,10.4,71.5,11.4,3,22.6,5.4,33.9,7.2,2.4-6.3,5.5-11.9,11.7-14.1l180.8-65.8c-1.8-24.8-4.5-48.1-8.5-72.2l-39.7,13.1c-4.1.9-7.9-1.1-9.1-5-1-3.2.4-7,4.4-9l141.9-46.9,1.9-2.8c.3-.5-1-1.7-1.7-2.3l-232-76.8c-4.2-1.3-7.2-1.1-11.4.3l-230.6,76.2c-.9.3-2.8,1.9-2.4,2.5l1.9,2.9,127.6,42.1,76.7-50.8c-2.5-9.3,1.2-17.9,9-23.9,16.5-11.9,45.2-8.9,54.7,8.2,3,5.5,3.6,11.4,1.1,17.5-6.6,15.5-37.3,16.6-54.8,9.5l-68.7,45.5,85.2,28.2c4.3,1.4,7.8,1.7,12.1.2l58.9-19.5c4.2-1.4,8,1.2,9.2,5.1s-.4,7.7-4.3,9l-61.3,20.3ZM558.7,442.3c-.2-1.1-1.3-3.5-2.2-4.3-14.5-12.1-36.7-2.8-35.3,5.1,1.5,8.4,38.6,7.4,37.4-.8ZM444.6,558.3c0-7.3-5.9-13.2-13.2-13.2s-13.2,5.9-13.2,13.2,5.9,13.2,13.2,13.2,13.2-5.9,13.2-13.2ZM448.6,693.5c-.4-19-1.1-36.8-2.5-55.5-1.8-17.8-4.3-35.1-8.2-52.2-4.7.5-8.2.5-12.9,0-4,17.1-6.4,34.4-8.3,52.1-1.4,18.7-2.1,36.6-2.5,55.6,11.7,2.4,22.7,2.4,34.4,0ZM681.1,650.6c2.2-.8,3.4-6.5,3.7-8.6.6-13.2-3.5-25-12.2-34.7-2-1.9-6.8-5.9-9.4-5l-15.2,5.2c12.6,13,19,29.8,17.9,48.9l15.2-5.8ZM647.6,663.1c9.7-14.2-2.2-45.9-18.3-48.8l-96.1,35c12.6,13,19,30,17.8,48.9l96.6-35.1ZM522.7,660.2c-2-2.1-6.2-4.4-8.9-3.7-7.6,1.9-8.4,30.6,10.3,46.8s5.4,2.6,7.1,2.1c7-2,8.6-27.7-8.5-45.2ZM720.1,679.6c-6.4-9.5-15.6-12.5-25.4-14-6.3-.7-12.4.2-17.9,2.7,6.6,6.7,10.9,13.5,14.6,21.9l28.7-10.6Z"/>
</svg>