<?xml version="1.0" encoding="UTF-8"?>
<svg id="Camada_1" data-name="Camada 1" xmlns="http://www.w3.org/2000/svg" viewBox="0 0 1080 1080">
  <defs>
    <style>
      .cls-1 {
        fill: #f6f6f8;
      }

      .cls-2 {
        fill: none;
        stroke: #f7f8f8;
        stroke-miterlimit: 10;
        stroke-width: 6px;
      }

      .cls-3 {
        fill: #b67b41;
      }
    </style>
  </defs>
  <g>
    <circle class="cls-3" cx="540" cy="540" r="407.4"/>
    <circle class="cls-2" cx="540" cy="540" r="385.4"/>
  </g>
  <g>
    <path class="cls-1" d="M567.3,692.3c-7.3-1.8-9.7-11.2-8.2-17.2l13.4-52.4c1.7-6.6,8.6-10.2,15.2-9.7l9.3-66.5c1.5-10.8,5.9-23,13.6-30.8l39.1-39.4c8.1-8.2,18.9-13.6,30.1-9.4l-9.9-58.9c-1.9-11.5-4.7-22.4.6-33.3s7.4-10.1,12.2-11.4c6.8-1.8,13.1-.3,18.1,4.1s11,11.6,13.4,19.3l23.6,74c2.4,7.4,6.5,13.7,6.8,21.8.4,9.6-1.5,18.9-4.9,28.3l-47.5,129c4.5,4,7.7,9.5,6.1,15.7l-13.3,52.4c-1.6,6.2-8.7,12.1-15.5,10.4l-102.4-26ZM672.6,481.6c-3.3-1.6-8.2,3.2-10.6,4.9l-39.1,38.6c-5,7.4-8.4,15.4-10.5,24.2l-8.6,63.8,74.5,18.7,46.6-126.1c2-7.7,4.7-14.6,4-22.4-.5-6.1-4-11.3-5.8-17.1l-23.8-74.6c-1.8-5.5-5.9-10.6-10.6-13.3s-3.7,2.5-4.2,3.9c-2.5,7-.2,14.1.9,21.2l5.5,35.7c1.7,11.3,3.8,22.3,6.9,33.2,4.4,15.2-4.3,20.9-11.8,30.9l-31.7,42.1c-3,3.9-7.9,4.7-11.6,1.8s-4.1-7.3-1.3-11.1l30.6-40.7c2.6-3.5,6.8-11,.6-14ZM587,629l-12.4,49,95.8,24.3,12.4-49-95.8-24.3Z"/>
    <path class="cls-1" d="M518,675.8c1.6,6.2-1.9,14.9-8.2,16.5l-102,25.9c-6.7,1.7-14.1-3.5-15.8-10l-13.5-53.2c-1.7-6.6,2.2-13,8-15.8l-45.8-124.3c-3.2-8.6-4.9-17.2-5.4-26s4-15.9,6.5-24l23.4-73.4c4.5-14.1,17.1-28.9,31.9-25.1s10.2,6.6,12.9,12.5c4.8,10.7,1.9,21.4,0,32.6l-9.7,58.5c10.6-4,21.7.9,29.5,8.7,13.4,13.4,26.8,25.7,39.6,39.9,7.7,8.5,12.4,20.9,14,32.3l8.6,62c6.1.8,11.4,4.7,12.9,10.8l13.2,52.1ZM407.1,484.8c-4.4,2.5-2.7,8.8-.7,11.6l32.8,43.9c2.6,3.5.4,8.7-2.2,10.5-3.8,2.6-8.4,1.8-11.1-1.8l-31.3-41.6c-5.6-7.4-16.3-16.8-13.5-27.5s5.9-24.3,7.9-37l5.4-35.7c1.1-7.5,4-14.4.7-21.9s-1.7-3-2.7-3.5c-3.5-1.6-10.5,8.6-13.3,17.5l-22.3,70.6c-1.8,5.8-5.5,10.9-5.8,17.1-.4,7.8,2.1,14.6,4.2,22.2l46.5,125.8,74.4-18.8-8.5-63.3c-2-8.7-5.2-16.5-9.9-24l-40.8-40.4c-2-2-7.5-5.2-9.9-3.9ZM490,629.1l-95.8,24.2,12.4,49,95.8-24.2-12.4-49Z"/>
    <path class="cls-1" d="M625.9,460.6c-18,32.9-49.3,63.2-75.9,90.2-2.9,3-8,5.6-11.7,1.9-27.2-27-59.5-58.7-77.8-91.8s-21.4-60.6,1.3-83.8c11.1-11.3,26.5-16.8,42.8-15.4,16.3,1.3,29.6,10,38.5,25,9.2-15.5,23.3-24.3,40.8-25.2,32.9-1.6,59,25.8,55.3,58.8-1.3,14.4-6.3,27.5-13.3,40.3ZM613.4,388.4c-7.7-7.9-18.3-11.7-29.5-11-17.8,1.1-25.6,12.9-33.3,27.9s-4.7,5.5-8.3,5.2-5.5-2.6-7-5.6c-7.7-14.9-15.1-26.2-32.7-27.5-11.5-.9-22.1,3-29.8,10.9-16.9,17.4-10.4,42.7.8,63.8,17.5,31.3,43.8,56.9,69.4,83.1,24.6-25,49.3-49.2,67.4-79.2,12.2-21.5,20.9-49.3,3-67.6Z"/>
    <path class="cls-1" d="M550.4,491.2c0,5.1-4,8.2-8,8.1s-7.8-3-7.8-7.6v-35.9s-14.5,0-14.5,0c-4.5,0-7.7-3.3-8-7.5s2.6-8.1,7-8.1l15.4-.2v-9.3c-.2-5,3.2-8.8,7.8-8.8s8.2,3.7,8.1,8.8v9.3c-.1,0,14.2,0,14.2,0,4.7,0,8,3.4,8.1,7.6s-2.8,8.1-7.5,8.2h-14.8c0,.1,0,35.6,0,35.6Z"/>
  </g>
</svg>